<mxfile host="app.diagrams.net" modified="2023-05-26T19:38:17.285Z" agent="Mozilla/5.0 (Windows NT 10.0; Win64; x64) AppleWebKit/537.36 (KHTML, like Gecko) Chrome/113.0.0.0 Safari/537.36" etag="Mn4bOZjTpvaA78eJiWuk" version="21.3.4" type="github">
  <diagram id="C5RBs43oDa-KdzZeNtuy" name="Page-1">
    <mxGraphModel dx="1434" dy="764" grid="1" gridSize="10" guides="1" tooltips="1" connect="1" arrows="1" fold="1" page="1" pageScale="1" pageWidth="827" pageHeight="1169" math="0" shadow="0">
      <root>
        <mxCell id="WIyWlLk6GJQsqaUBKTNV-0" />
        <mxCell id="WIyWlLk6GJQsqaUBKTNV-1" parent="WIyWlLk6GJQsqaUBKTNV-0" />
        <mxCell id="tuPEwVZg-7ExepYIHf_O-42" value="" style="edgeStyle=orthogonalEdgeStyle;rounded=0;orthogonalLoop=1;jettySize=auto;html=1;" edge="1" parent="WIyWlLk6GJQsqaUBKTNV-1" source="WIyWlLk6GJQsqaUBKTNV-3" target="tuPEwVZg-7ExepYIHf_O-3">
          <mxGeometry relative="1" as="geometry" />
        </mxCell>
        <mxCell id="WIyWlLk6GJQsqaUBKTNV-3" value="Inicio" style="rounded=1;whiteSpace=wrap;html=1;fontSize=12;glass=0;strokeWidth=1;shadow=0;" parent="WIyWlLk6GJQsqaUBKTNV-1" vertex="1">
          <mxGeometry x="160" y="70" width="120" height="40" as="geometry" />
        </mxCell>
        <mxCell id="tuPEwVZg-7ExepYIHf_O-41" value="" style="edgeStyle=orthogonalEdgeStyle;rounded=0;orthogonalLoop=1;jettySize=auto;html=1;" edge="1" parent="WIyWlLk6GJQsqaUBKTNV-1" source="tuPEwVZg-7ExepYIHf_O-1" target="tuPEwVZg-7ExepYIHf_O-6">
          <mxGeometry relative="1" as="geometry" />
        </mxCell>
        <mxCell id="tuPEwVZg-7ExepYIHf_O-1" value="&quot;¿Cuantos números quieres sumar?&quot;" style="strokeWidth=2;html=1;shape=mxgraph.flowchart.document2;whiteSpace=wrap;size=0.25;" vertex="1" parent="WIyWlLk6GJQsqaUBKTNV-1">
          <mxGeometry x="170" y="130" width="100" height="60" as="geometry" />
        </mxCell>
        <mxCell id="tuPEwVZg-7ExepYIHf_O-40" value="" style="edgeStyle=orthogonalEdgeStyle;rounded=0;orthogonalLoop=1;jettySize=auto;html=1;" edge="1" parent="WIyWlLk6GJQsqaUBKTNV-1" source="tuPEwVZg-7ExepYIHf_O-3" target="tuPEwVZg-7ExepYIHf_O-6">
          <mxGeometry relative="1" as="geometry" />
        </mxCell>
        <mxCell id="tuPEwVZg-7ExepYIHf_O-3" value="n" style="html=1;strokeWidth=2;shape=manualInput;whiteSpace=wrap;rounded=1;size=26;arcSize=11;" vertex="1" parent="WIyWlLk6GJQsqaUBKTNV-1">
          <mxGeometry x="170" y="210" width="100" height="60" as="geometry" />
        </mxCell>
        <mxCell id="tuPEwVZg-7ExepYIHf_O-9" value="" style="edgeStyle=orthogonalEdgeStyle;rounded=0;orthogonalLoop=1;jettySize=auto;html=1;" edge="1" parent="WIyWlLk6GJQsqaUBKTNV-1" source="tuPEwVZg-7ExepYIHf_O-18" target="tuPEwVZg-7ExepYIHf_O-8">
          <mxGeometry relative="1" as="geometry" />
        </mxCell>
        <mxCell id="tuPEwVZg-7ExepYIHf_O-6" value="i=1&lt;br&gt;suma = 0" style="rounded=1;whiteSpace=wrap;html=1;absoluteArcSize=1;arcSize=14;strokeWidth=2;" vertex="1" parent="WIyWlLk6GJQsqaUBKTNV-1">
          <mxGeometry x="170" y="290" width="100" height="100" as="geometry" />
        </mxCell>
        <mxCell id="tuPEwVZg-7ExepYIHf_O-24" value="" style="edgeStyle=orthogonalEdgeStyle;rounded=0;orthogonalLoop=1;jettySize=auto;html=1;" edge="1" parent="WIyWlLk6GJQsqaUBKTNV-1" source="tuPEwVZg-7ExepYIHf_O-8" target="tuPEwVZg-7ExepYIHf_O-23">
          <mxGeometry relative="1" as="geometry" />
        </mxCell>
        <mxCell id="tuPEwVZg-7ExepYIHf_O-37" value="" style="edgeStyle=orthogonalEdgeStyle;rounded=0;orthogonalLoop=1;jettySize=auto;html=1;" edge="1" parent="WIyWlLk6GJQsqaUBKTNV-1" source="tuPEwVZg-7ExepYIHf_O-8" target="tuPEwVZg-7ExepYIHf_O-36">
          <mxGeometry relative="1" as="geometry" />
        </mxCell>
        <mxCell id="tuPEwVZg-7ExepYIHf_O-8" value="i &amp;lt;= n" style="rhombus;whiteSpace=wrap;html=1;rounded=1;arcSize=14;strokeWidth=2;" vertex="1" parent="WIyWlLk6GJQsqaUBKTNV-1">
          <mxGeometry x="180" y="440" width="80" height="80" as="geometry" />
        </mxCell>
        <mxCell id="tuPEwVZg-7ExepYIHf_O-20" value="" style="edgeStyle=orthogonalEdgeStyle;rounded=0;orthogonalLoop=1;jettySize=auto;html=1;" edge="1" parent="WIyWlLk6GJQsqaUBKTNV-1" source="tuPEwVZg-7ExepYIHf_O-6" target="tuPEwVZg-7ExepYIHf_O-18">
          <mxGeometry relative="1" as="geometry">
            <mxPoint x="220" y="380" as="sourcePoint" />
            <mxPoint x="220" y="440" as="targetPoint" />
          </mxGeometry>
        </mxCell>
        <mxCell id="tuPEwVZg-7ExepYIHf_O-18" value="" style="shape=waypoint;sketch=0;size=6;pointerEvents=1;points=[];fillColor=default;resizable=0;rotatable=0;perimeter=centerPerimeter;snapToPoint=1;rounded=1;arcSize=14;strokeWidth=2;" vertex="1" parent="WIyWlLk6GJQsqaUBKTNV-1">
          <mxGeometry x="210" y="400" width="20" height="20" as="geometry" />
        </mxCell>
        <mxCell id="tuPEwVZg-7ExepYIHf_O-26" value="" style="edgeStyle=orthogonalEdgeStyle;rounded=0;orthogonalLoop=1;jettySize=auto;html=1;" edge="1" parent="WIyWlLk6GJQsqaUBKTNV-1" source="tuPEwVZg-7ExepYIHf_O-23" target="tuPEwVZg-7ExepYIHf_O-25">
          <mxGeometry relative="1" as="geometry" />
        </mxCell>
        <mxCell id="tuPEwVZg-7ExepYIHf_O-23" value="&quot;¿Que número quieres sumar?&quot;" style="strokeWidth=2;html=1;shape=mxgraph.flowchart.document2;whiteSpace=wrap;size=0.25;" vertex="1" parent="WIyWlLk6GJQsqaUBKTNV-1">
          <mxGeometry x="170" y="550" width="100" height="60" as="geometry" />
        </mxCell>
        <mxCell id="tuPEwVZg-7ExepYIHf_O-29" value="" style="edgeStyle=orthogonalEdgeStyle;rounded=0;orthogonalLoop=1;jettySize=auto;html=1;" edge="1" parent="WIyWlLk6GJQsqaUBKTNV-1" source="tuPEwVZg-7ExepYIHf_O-25" target="tuPEwVZg-7ExepYIHf_O-27">
          <mxGeometry relative="1" as="geometry" />
        </mxCell>
        <mxCell id="tuPEwVZg-7ExepYIHf_O-25" value="numero" style="html=1;strokeWidth=2;shape=manualInput;whiteSpace=wrap;rounded=1;size=26;arcSize=11;" vertex="1" parent="WIyWlLk6GJQsqaUBKTNV-1">
          <mxGeometry x="170" y="620" width="100" height="60" as="geometry" />
        </mxCell>
        <mxCell id="tuPEwVZg-7ExepYIHf_O-31" value="" style="edgeStyle=orthogonalEdgeStyle;rounded=0;orthogonalLoop=1;jettySize=auto;html=1;" edge="1" parent="WIyWlLk6GJQsqaUBKTNV-1" source="tuPEwVZg-7ExepYIHf_O-27" target="tuPEwVZg-7ExepYIHf_O-30">
          <mxGeometry relative="1" as="geometry" />
        </mxCell>
        <mxCell id="tuPEwVZg-7ExepYIHf_O-27" value="suma += numero&lt;br&gt;i++" style="rounded=1;whiteSpace=wrap;html=1;absoluteArcSize=1;arcSize=14;strokeWidth=2;" vertex="1" parent="WIyWlLk6GJQsqaUBKTNV-1">
          <mxGeometry x="170" y="720" width="100" height="100" as="geometry" />
        </mxCell>
        <mxCell id="tuPEwVZg-7ExepYIHf_O-30" value="" style="shape=waypoint;sketch=0;size=6;pointerEvents=1;points=[];fillColor=default;resizable=0;rotatable=0;perimeter=centerPerimeter;snapToPoint=1;rounded=1;arcSize=14;strokeWidth=2;" vertex="1" parent="WIyWlLk6GJQsqaUBKTNV-1">
          <mxGeometry x="100" y="760" width="20" height="20" as="geometry" />
        </mxCell>
        <mxCell id="tuPEwVZg-7ExepYIHf_O-35" value="" style="edgeStyle=orthogonalEdgeStyle;rounded=0;orthogonalLoop=1;jettySize=auto;html=1;" edge="1" parent="WIyWlLk6GJQsqaUBKTNV-1" source="tuPEwVZg-7ExepYIHf_O-32" target="tuPEwVZg-7ExepYIHf_O-18">
          <mxGeometry relative="1" as="geometry" />
        </mxCell>
        <mxCell id="tuPEwVZg-7ExepYIHf_O-39" value="" style="edgeStyle=orthogonalEdgeStyle;rounded=0;orthogonalLoop=1;jettySize=auto;html=1;" edge="1" parent="WIyWlLk6GJQsqaUBKTNV-1" source="tuPEwVZg-7ExepYIHf_O-36" target="tuPEwVZg-7ExepYIHf_O-38">
          <mxGeometry relative="1" as="geometry" />
        </mxCell>
        <mxCell id="tuPEwVZg-7ExepYIHf_O-36" value="&quot;La suma es igual a &quot;, suma" style="shape=document;whiteSpace=wrap;html=1;boundedLbl=1;rounded=1;arcSize=14;strokeWidth=2;" vertex="1" parent="WIyWlLk6GJQsqaUBKTNV-1">
          <mxGeometry x="290" y="440" width="120" height="80" as="geometry" />
        </mxCell>
        <mxCell id="tuPEwVZg-7ExepYIHf_O-38" value="Fin" style="strokeWidth=2;html=1;shape=mxgraph.flowchart.terminator;whiteSpace=wrap;" vertex="1" parent="WIyWlLk6GJQsqaUBKTNV-1">
          <mxGeometry x="300" y="600" width="100" height="60" as="geometry" />
        </mxCell>
        <mxCell id="tuPEwVZg-7ExepYIHf_O-43" value="" style="edgeStyle=orthogonalEdgeStyle;rounded=0;orthogonalLoop=1;jettySize=auto;html=1;" edge="1" parent="WIyWlLk6GJQsqaUBKTNV-1" source="tuPEwVZg-7ExepYIHf_O-30" target="tuPEwVZg-7ExepYIHf_O-32">
          <mxGeometry relative="1" as="geometry">
            <mxPoint x="40" y="770" as="sourcePoint" />
            <mxPoint x="110" y="460" as="targetPoint" />
            <Array as="points">
              <mxPoint x="110" y="770" />
            </Array>
          </mxGeometry>
        </mxCell>
        <mxCell id="tuPEwVZg-7ExepYIHf_O-32" value="" style="shape=waypoint;sketch=0;size=6;pointerEvents=1;points=[];fillColor=default;resizable=0;rotatable=0;perimeter=centerPerimeter;snapToPoint=1;rounded=1;arcSize=14;strokeWidth=2;" vertex="1" parent="WIyWlLk6GJQsqaUBKTNV-1">
          <mxGeometry x="100" y="400" width="20" height="20" as="geometry" />
        </mxCell>
      </root>
    </mxGraphModel>
  </diagram>
</mxfile>
